<svg xmlns="http://www.w3.org/2000/svg" version="1.1" xmlns:xlink="http://www.w3.org/1999/xlink" xmlns:svgjs="http://svgjs.com/svgjs" width="150" height="150"><svg id="SvgjsSvg1000" data-name="Warstwa 1" xmlns="http://www.w3.org/2000/svg" viewBox="0 0 150 150"><defs><style>.cls-1{fill:#313358;}.cls-2{fill:#fff;}</style></defs><rect class="cls-1" width="150" height="150" rx="30"></rect><ellipse class="cls-2" cx="30.62" cy="30.71" rx="7.95" ry="8.57"></ellipse><ellipse class="cls-2" cx="30.62" cy="68.43" rx="7.95" ry="8.57"></ellipse><path class="cls-2" d="M93.22,116a20,20,0,0,0,11.24-3.25,23.32,23.32,0,0,0,7.79-9.21,28.29,28.29,0,0,0,3-13,27.83,27.83,0,0,0-3-13,22.47,22.47,0,0,0-7.79-8.93,19.39,19.39,0,0,0-11.24-3.39A19.8,19.8,0,0,0,82,68.57a22.37,22.37,0,0,0-7.78,8.93,28.67,28.67,0,0,0-2.85,13,29.15,29.15,0,0,0,2.85,13A23.22,23.22,0,0,0,82,112.71,20.47,20.47,0,0,0,93.22,116Zm0,12.18a31.51,31.51,0,0,1-17.3-4.87A35.4,35.4,0,0,1,63.8,109.73,42.22,42.22,0,0,1,59.23,90.5V28.76a7.18,7.18,0,0,1,1.73-5,6.16,6.16,0,0,1,4.57-1.89,5.92,5.92,0,0,1,4.58,1.89,7.18,7.18,0,0,1,1.73,5V65.32a31.89,31.89,0,0,1,10.38-8.94A28.6,28.6,0,0,1,111.88,58a33.12,33.12,0,0,1,11.24,13.4,42.1,42.1,0,0,1,4.2,19.09,40.05,40.05,0,0,1-4.57,19.23,35.38,35.38,0,0,1-12.11,13.54A31.77,31.77,0,0,1,93.22,128.14Z"></path></svg><style>@media (prefers-color-scheme: light) { :root { filter: none; } }
@media (prefers-color-scheme: dark) { :root { filter: none; } }
</style></svg>