<svg width="344" height="65" viewBox="0 0 344 65" fill="none" xmlns="http://www.w3.org/2000/svg">
<g clip-path="url(#clip0_4555_60425)">
<path d="M6.14551 12.3198C9.23663 12.3198 11.7425 9.81393 11.7425 6.72281C11.7425 3.6317 9.23663 1.12585 6.14551 1.12585C3.0544 1.12585 0.548553 3.6317 0.548553 6.72281C0.548553 9.81393 3.0544 12.3198 6.14551 12.3198Z" fill="#B6D3D1"/>
<path d="M6.14551 35.2327C9.23663 35.2327 11.7425 32.7269 11.7425 29.6358C11.7425 26.5447 9.23663 24.0388 6.14551 24.0388C3.0544 24.0388 0.548553 26.5447 0.548553 29.6358C0.548553 32.7269 3.0544 35.2327 6.14551 35.2327Z" fill="#B6D3D1"/>
<path d="M57.8886 22.3482C54.7507 20.3118 51.1517 19.2744 47.2069 19.2744C44.0178 19.2744 41.0208 19.966 38.3184 21.3492C36.2948 22.361 34.4633 23.6802 32.8751 25.2684V5.82629C32.8751 4.40464 32.4269 3.22633 31.556 2.32979C30.6722 1.43325 29.5195 0.984985 28.0979 0.984985C26.6762 0.984985 25.5876 1.43325 24.6398 2.32979C23.7689 3.21352 23.3206 4.39183 23.3206 5.82629V42.1105C23.3718 46.4138 24.3837 50.333 26.3176 53.7783C28.2516 57.2235 30.9284 59.99 34.2712 62.0264C37.614 63.9988 41.4307 64.9978 45.6316 64.9978C49.8325 64.9978 53.7261 63.9988 57.0817 62.0264C60.4245 60.0028 63.0885 57.2235 65.0224 53.7911C67.0204 50.3458 68.0194 46.4138 68.0194 42.1105C68.0194 37.8071 67.0973 33.9135 65.2658 30.5323C63.4855 27.087 61.0008 24.3334 57.8757 22.361L57.8886 22.3482ZM58.7979 42.0848C58.7979 44.7488 58.1959 47.1951 57.0048 49.3596C55.8778 51.5113 54.3024 53.2275 52.3556 54.4699C50.3961 55.661 48.1419 56.2629 45.6316 56.2629C43.1213 56.2629 40.9184 55.661 38.9204 54.4699C36.9608 53.2275 35.3855 51.5113 34.2584 49.3596C33.1185 47.2079 32.5421 44.7616 32.5421 42.0848C32.5421 39.408 33.1185 36.9233 34.2456 34.8229C35.3726 32.7352 36.9352 31.0702 38.9076 29.8663C40.9184 28.624 43.1725 27.9964 45.6188 27.9964C48.0651 27.9964 50.3704 28.624 52.3428 29.8663C54.3024 31.0574 55.8649 32.7224 57.0048 34.8357C58.1831 36.9362 58.7851 39.3696 58.7851 42.0848H58.7979Z" fill="#B6D3D1"/>
<path d="M109.017 22.1818C105.981 20.2478 102.306 19.2744 98.1047 19.2744C93.9038 19.2744 90.0358 20.2734 86.7443 22.2458C83.4527 24.167 80.8271 26.8822 78.9316 30.3403C77.1001 33.7343 76.1779 37.7047 76.1779 42.1617C76.1779 46.6188 77.1641 50.5508 79.1109 54.0089C81.0961 57.4029 83.8625 60.1181 87.3206 62.0905C90.8171 63.9988 94.8387 64.9722 99.283 64.9722C101.755 64.9722 104.38 64.4983 107.044 63.5762C109.785 62.654 112.103 61.4245 113.922 59.9516C115.024 59.0935 115.549 58.0433 115.472 56.8265C115.408 55.661 114.844 54.598 113.794 53.6502C112.962 52.933 111.963 52.6 110.861 52.664C109.811 52.664 108.812 53.0099 107.89 53.7015C106.904 54.4443 105.584 55.1359 103.958 55.7379C102.382 56.2886 100.807 56.5704 99.283 56.5704C95.5175 56.5704 92.29 55.4817 89.69 53.3429C87.359 51.332 85.8477 48.7833 85.1817 45.7223H113.999C115.241 45.7223 116.292 45.3252 117.137 44.5312C117.957 43.6987 118.379 42.6484 118.379 41.4445C118.379 37.1539 117.56 33.3116 115.959 30.0585C114.383 26.7029 112.052 24.0389 109.017 22.169V22.1818ZM109.491 37.8071H85.297C85.9758 34.9638 87.3334 32.5816 89.3314 30.7245C91.5215 28.7009 94.4801 27.6763 98.1175 27.6763C101.473 27.6763 104.047 28.6881 106.007 30.7757C107.787 32.6328 108.953 34.9894 109.491 37.8071Z" fill="#B6D3D1"/>
<path d="M156.124 22.1818C153.088 20.2478 149.412 19.2744 145.211 19.2744C141.01 19.2744 137.143 20.2734 133.851 22.2458C130.559 24.167 127.934 26.895 126.038 30.3403C124.207 33.7215 123.285 37.7047 123.285 42.1617C123.285 46.6188 124.271 50.5508 126.205 54.0089C128.203 57.4029 130.956 60.1181 134.414 62.0905C137.911 63.9988 141.933 64.9722 146.377 64.9722C148.862 64.9722 151.474 64.4983 154.138 63.5762C156.879 62.654 159.197 61.4245 161.029 59.9516C162.13 59.0935 162.655 58.0433 162.579 56.8265C162.515 55.661 161.951 54.598 160.901 53.6502C160.068 52.933 159.056 52.6 157.968 52.664C156.918 52.664 155.906 53.0099 154.984 53.7015C154.01 54.4443 152.678 55.1359 151.052 55.7379C149.476 56.2886 147.901 56.5704 146.377 56.5704C142.611 56.5704 139.384 55.4817 136.784 53.3429C134.453 51.3449 132.942 48.7833 132.276 45.7223H161.093C162.335 45.7223 163.385 45.3252 164.231 44.5312C165.05 43.6987 165.473 42.6484 165.473 41.4317C165.473 37.1411 164.653 33.2988 163.052 30.0457C161.477 26.6901 159.146 24.0261 156.111 22.1561L156.124 22.1818ZM156.585 37.8071H132.391C133.07 34.951 134.427 32.5816 136.425 30.7245C138.615 28.7009 141.574 27.6763 145.211 27.6763C148.567 27.6763 151.141 28.6881 153.101 30.7757C154.881 32.6328 156.047 34.9894 156.585 37.8071Z" fill="#B6D3D1"/>
<path d="M208.673 22.3482C205.536 20.3118 201.937 19.2744 197.992 19.2744C194.803 19.2744 191.806 19.966 189.103 21.3492C187.08 22.361 185.248 23.6802 183.66 25.2684V5.82629C183.66 4.40464 183.212 3.22633 182.341 2.32979C181.457 1.43325 180.304 0.984985 178.883 0.984985C177.461 0.984985 176.372 1.43325 175.425 2.32979C174.541 3.21352 174.105 4.39183 174.105 5.82629V42.1105C174.157 46.4138 175.169 50.333 177.102 53.7783C179.036 57.2235 181.713 59.99 185.056 62.0264C188.399 63.9988 192.216 64.9978 196.416 64.9978C200.617 64.9978 204.511 63.9988 207.867 62.0264C211.209 60.0028 213.873 57.2363 215.807 53.7911C217.805 50.3458 218.804 46.4138 218.804 42.1105C218.804 37.8071 217.882 33.9135 216.051 30.5323C214.27 27.087 211.786 24.3334 208.661 22.361L208.673 22.3482ZM209.583 42.0848C209.583 44.7488 208.981 47.1951 207.79 49.3596C206.663 51.5113 205.087 53.2275 203.14 54.4699C201.181 55.661 198.927 56.2629 196.416 56.2629C193.906 56.2629 191.703 55.661 189.705 54.4699C187.746 53.2275 186.183 51.5113 185.043 49.3596C183.903 47.2079 183.327 44.7616 183.327 42.0848C183.327 39.408 183.903 36.9233 185.03 34.8229C186.157 32.7352 187.72 31.0702 189.692 29.8663C191.69 28.624 193.957 27.9964 196.404 27.9964C198.85 27.9964 201.155 28.624 203.128 29.8663C205.087 31.0574 206.65 32.7224 207.79 34.8357C208.968 36.9362 209.57 39.3696 209.57 42.0848H209.583Z" fill="#B6D3D1"/>
<path d="M260.878 22.2458C257.535 20.2734 253.667 19.2744 249.363 19.2744C245.06 19.2744 241.115 20.2734 237.785 22.2458C234.442 24.167 231.753 26.8822 229.819 30.3403C227.936 33.7343 226.976 37.7047 226.976 42.1746C226.976 46.6444 227.936 50.5636 229.819 54.0217C231.753 57.4157 234.43 60.1309 237.785 62.1033C241.128 64.0245 245.022 64.985 249.363 64.985C253.705 64.985 257.612 64.0117 260.954 62.0905C264.297 60.1181 266.948 57.4029 268.844 53.996C270.727 50.5508 271.674 46.5804 271.674 42.1746C271.674 37.7687 270.688 33.7215 268.754 30.3403C266.872 26.8822 264.208 24.167 260.865 22.2458H260.878ZM262.453 42.1746C262.453 44.941 261.877 47.4129 260.737 49.5262C259.661 51.6138 258.124 53.2788 256.164 54.4699C254.205 55.661 251.925 56.263 249.363 56.263C246.802 56.263 244.522 55.661 242.563 54.4699C240.603 53.2788 239.04 51.6138 237.913 49.5134C236.786 47.4129 236.21 44.941 236.21 42.1746C236.21 39.4081 236.786 36.9362 237.926 34.8229C239.053 32.6841 240.616 30.9934 242.575 29.8023C244.535 28.6112 246.815 28.0093 249.376 28.0093C251.938 28.0093 254.218 28.6112 256.177 29.8023C258.124 30.9934 259.661 32.6841 260.749 34.8358C261.877 36.9362 262.453 39.4081 262.453 42.1874V42.1746Z" fill="#B6D3D1"/>
<path d="M294.92 55.1487H292.961C292.103 55.1487 291.398 54.6492 290.822 53.6374C290.169 52.4975 289.823 50.9862 289.823 49.1803V5.73664C289.823 4.36621 289.375 3.21352 288.504 2.32979C287.62 1.43325 286.493 0.984985 285.135 0.984985C283.778 0.984985 282.638 1.43325 281.754 2.32979C280.883 3.22633 280.435 4.36621 280.435 5.73664V49.1675C280.435 52.1261 280.96 54.8029 281.997 57.1211C283.048 59.4136 284.521 61.258 286.403 62.6028C288.312 63.9732 290.515 64.6648 292.961 64.6648H293.115C294.844 64.6648 296.291 64.2421 297.418 63.3968C298.609 62.5003 299.224 61.3348 299.224 59.9131C299.224 58.4915 298.814 57.4028 298.02 56.5447C297.239 55.6226 296.201 55.1487 294.92 55.1487Z" fill="#B6D3D1"/>
<path d="M341.873 44.544C342.693 43.6987 343.116 42.6612 343.116 41.4573C343.116 37.1667 342.296 33.3373 340.695 30.0713C339.12 26.7157 336.789 24.0517 333.753 22.1818C330.718 20.2478 327.042 19.2744 322.841 19.2744C318.64 19.2744 314.772 20.2734 311.494 22.2458C308.202 24.167 305.576 26.895 303.681 30.3403C301.849 33.7343 300.927 37.7047 300.927 42.1617C300.927 46.6188 301.913 50.5508 303.86 54.0089C305.845 57.4029 308.612 60.1181 312.07 62.0905C315.566 63.9988 319.588 64.9722 324.032 64.9722C326.517 64.9722 329.13 64.4983 331.794 63.5762C334.535 62.654 336.853 61.4245 338.684 59.9516C339.786 59.0935 340.298 58.0433 340.234 56.8265C340.17 55.661 339.606 54.598 338.556 53.6502C337.724 52.933 336.725 52.6 335.623 52.664C334.56 52.664 333.561 53.0099 332.639 53.7015C331.666 54.4443 330.334 55.1359 328.707 55.7379C327.132 56.2886 325.556 56.5704 324.032 56.5704C320.267 56.5704 317.039 55.4817 314.439 53.3429C312.108 51.332 310.597 48.7833 309.931 45.7223H338.748C339.991 45.7223 341.041 45.3252 341.886 44.5312L341.873 44.544ZM310.021 37.8071C310.699 34.951 312.057 32.5816 314.055 30.7245C316.245 28.7009 319.204 27.6763 322.841 27.6763C326.197 27.6763 328.771 28.6881 330.731 30.7757C332.511 32.6328 333.676 34.9894 334.214 37.8071H310.021Z" fill="#B6D3D1"/>
</g>
<defs>
<clipPath id="clip0_4555_60425">
<rect width="342.567" height="64" fill="white" transform="translate(0.548553 0.984985)"/>
</clipPath>
</defs>
</svg>
