<svg width="180" height="180" viewBox="0 0 180 180" fill="none" xmlns="http://www.w3.org/2000/svg">
<g clip-path="url(#clip0_4147_36664)">
<rect width="180" height="180" rx="16" fill="#EDF4F3"/>
<path fill-rule="evenodd" clip-rule="evenodd" d="M87.6137 74.4151C90.5696 71.4466 93.9079 68.9722 97.6279 66.9992L98.6263 66.4862C104.13 63.6931 110.123 62.303 116.577 62.303C124.563 62.3033 131.774 64.3636 138.162 68.5031C144.515 72.5124 149.491 78.0209 153.09 84.9904C156.815 91.8908 158.661 99.7088 158.661 108.403C158.661 117.121 156.648 125.007 152.595 132.018L152.592 132.016C148.664 138.992 143.31 144.545 136.54 148.649L136.522 148.66C129.716 152.674 121.997 154.665 113.41 154.665C104.925 154.665 97.26 152.672 90.4572 148.66L90.442 148.649C83.6667 144.542 78.3057 138.985 74.3769 132C70.4384 124.999 68.4293 117.127 68.3209 108.423V35.1091C68.321 32.3068 69.1735 29.9024 70.99 28.0572L71.0077 28.037L71.0279 28.0167C72.9232 26.2201 75.2729 25.335 77.9685 25.335C80.7468 25.3352 83.1283 26.2096 84.9471 28.0572C86.7628 29.9022 87.6136 32.3074 87.6137 35.1091V74.4151ZM136.403 93.7458C138.786 97.9827 140 102.855 140 108.403C140 113.839 138.789 118.719 136.396 123.076L136.383 123.098C134.08 127.471 130.945 130.904 126.97 133.428C123.024 135.829 118.519 137.045 113.41 137.045C108.719 137.045 104.455 135.975 100.588 133.848L99.8193 133.408C95.8602 130.885 92.7357 127.459 90.4395 123.098C88.1434 118.738 86.9818 113.85 86.9818 108.403C86.9819 102.844 88.1457 97.9644 90.4319 93.7231C92.7301 89.4601 95.8601 86.1324 99.8319 83.7114L99.842 83.7064C103.908 81.1881 108.418 79.9254 113.41 79.9252C118.514 79.9252 123.018 81.1902 126.965 83.6963L126.991 83.7114C130.962 86.1324 134.092 89.4601 136.39 93.7231L136.403 93.7458Z" fill="#162C2A"/>
<path d="M45.1887 83.2413C45.1883 89.6426 39.9986 94.8326 33.5973 94.8327C27.1959 94.8327 22.0062 89.6427 22.0059 83.2413C22.0059 76.8397 27.1957 71.6499 33.5973 71.6499C39.9988 71.6501 45.1887 76.8398 45.1887 83.2413Z" fill="#162C2A"/>
<path d="M45.1887 36.9264C45.1886 43.3278 39.9988 48.5176 33.5973 48.5178C27.1957 48.5178 22.006 43.3279 22.0059 36.9264C22.0059 30.5248 27.1957 25.335 33.5973 25.335C39.9988 25.3351 45.1887 30.5248 45.1887 36.9264Z" fill="#162C2A"/>
</g>
<defs>
<clipPath id="clip0_4147_36664">
<rect width="180" height="180" rx="16" fill="white"/>
</clipPath>
</defs>
</svg>
