<svg width="343" height="65" viewBox="0 0 343 65" fill="none" xmlns="http://www.w3.org/2000/svg">
<g clip-path="url(#clip0_4555_60414)">
<path d="M5.59696 12.2897C8.68807 12.2897 11.1939 9.7839 11.1939 6.69278C11.1939 3.60167 8.68807 1.09583 5.59696 1.09583C2.50584 1.09583 -1.21833e-06 3.60167 -1.21833e-06 6.69278C-1.21833e-06 9.7839 2.50584 12.2897 5.59696 12.2897Z" fill="#162C2A"/>
<path d="M5.59696 35.2027C8.68807 35.2027 11.1939 32.6969 11.1939 29.6057C11.1939 26.5146 8.68807 24.0088 5.59696 24.0088C2.50584 24.0088 -1.21833e-06 26.5146 -1.21833e-06 29.6057C-1.21833e-06 32.6969 2.50584 35.2027 5.59696 35.2027Z" fill="#162C2A"/>
<path d="M57.34 22.3182C54.2021 20.2818 50.6032 19.2443 46.6584 19.2443C43.4693 19.2443 40.4723 19.9359 37.7699 21.3192C35.7462 22.331 33.9147 23.6502 32.3266 25.2383V5.79626C32.3266 4.37461 31.8783 3.1963 31.0074 2.29976C30.1237 1.40322 28.971 0.954956 27.5493 0.954956C26.1277 0.954956 25.039 1.40322 24.0913 2.29976C23.2203 3.18349 22.7721 4.3618 22.7721 5.79626V42.0804C22.8233 46.3838 23.8351 50.303 25.7691 53.7482C27.703 57.1935 30.3798 59.96 33.7226 61.9964C37.0654 63.9688 40.8821 64.9678 45.083 64.9678C49.284 64.9678 53.1775 63.9688 56.5331 61.9964C59.8759 59.9728 62.5399 57.1935 64.4739 53.761C66.4719 50.3158 67.4709 46.3838 67.4709 42.0804C67.4709 37.777 66.5487 33.8835 64.7172 30.5023C62.937 27.057 60.4523 24.3034 57.3272 22.331L57.34 22.3182ZM58.2493 42.0548C58.2493 44.7188 57.6474 47.1651 56.4563 49.3296C55.3292 51.4813 53.7539 53.1975 51.8071 54.4398C49.8475 55.631 47.5934 56.2329 45.083 56.2329C42.5727 56.2329 40.3698 55.631 38.3718 54.4398C36.4122 53.1975 34.8369 51.4813 33.7098 49.3296C32.5699 47.1779 31.9936 44.7316 31.9936 42.0548C31.9936 39.378 32.5699 36.8933 33.697 34.7929C34.8241 32.7052 36.3866 31.0402 38.359 29.8363C40.3698 28.5939 42.624 27.9664 45.0702 27.9664C47.5165 27.9664 49.8219 28.5939 51.7943 29.8363C53.7538 31.0274 55.3164 32.6924 56.4563 34.8057C57.6346 36.9061 58.2365 39.3396 58.2365 42.0548H58.2493Z" fill="#162C2A"/>
<path d="M108.468 22.1517C105.433 20.2178 101.757 19.2444 97.5561 19.2444C93.3552 19.2444 89.4873 20.2434 86.1957 22.2158C82.9041 24.1369 80.2786 26.8521 78.383 30.3102C76.5515 33.7043 75.6294 37.6746 75.6294 42.1317C75.6294 46.5888 76.6156 50.5208 78.5623 53.9788C80.5475 57.3729 83.314 60.0881 86.7721 62.0605C90.2686 63.9688 94.2902 64.9422 98.7344 64.9422C101.206 64.9422 103.832 64.4683 106.496 63.5462C109.237 62.624 111.555 61.3945 113.374 59.9216C114.475 59.0635 115 58.0132 114.923 56.7965C114.859 55.631 114.296 54.568 113.246 53.6202C112.413 52.903 111.414 52.57 110.313 52.634C109.262 52.634 108.263 52.9798 107.341 53.6714C106.355 54.4143 105.036 55.1059 103.409 55.7079C101.834 56.2586 100.259 56.5404 98.7344 56.5404C94.969 56.5404 91.7414 55.4517 89.1415 53.3128C86.8105 51.302 85.2992 48.7533 84.6332 45.6923H113.45C114.693 45.6923 115.743 45.2952 116.588 44.5011C117.408 43.6686 117.831 42.6184 117.831 41.4145C117.831 37.1239 117.011 33.2816 115.41 30.0285C113.835 26.6728 111.504 24.0088 108.468 22.1389V22.1517ZM108.942 37.7771H84.7484C85.4272 34.9338 86.7849 32.5516 88.7829 30.6945C90.973 28.6708 93.9316 27.6462 97.5689 27.6462C100.925 27.6462 103.499 28.658 105.458 30.7457C107.239 32.6028 108.404 34.9594 108.942 37.7771Z" fill="#162C2A"/>
<path d="M155.575 22.1517C152.54 20.2178 148.864 19.2444 144.663 19.2444C140.462 19.2444 136.594 20.2434 133.302 22.2158C130.011 24.1369 127.385 26.865 125.49 30.3102C123.658 33.6915 122.736 37.6746 122.736 42.1317C122.736 46.5888 123.722 50.5208 125.656 53.9788C127.654 57.3729 130.408 60.0881 133.866 62.0605C137.362 63.9688 141.384 64.9422 145.828 64.9422C148.313 64.9422 150.926 64.4683 153.59 63.5462C156.331 62.624 158.649 61.3945 160.48 59.9216C161.582 59.0635 162.107 58.0132 162.03 56.7965C161.966 55.631 161.402 54.568 160.352 53.6202C159.52 52.903 158.508 52.57 157.419 52.634C156.369 52.634 155.357 52.9798 154.435 53.6714C153.462 54.4143 152.13 55.1059 150.503 55.7079C148.928 56.2586 147.352 56.5404 145.828 56.5404C142.063 56.5404 138.835 55.4517 136.235 53.3128C133.904 51.3148 132.393 48.7533 131.727 45.6923H160.544C161.787 45.6923 162.837 45.2952 163.682 44.5011C164.502 43.6686 164.925 42.6184 164.925 41.4017C164.925 37.1111 164.105 33.2688 162.504 30.0156C160.929 26.66 158.598 23.996 155.562 22.1261L155.575 22.1517ZM156.036 37.7771H131.842C132.521 34.921 133.879 32.5516 135.877 30.6945C138.067 28.6708 141.025 27.6462 144.663 27.6462C148.018 27.6462 150.593 28.658 152.552 30.7457C154.333 32.6028 155.498 34.9594 156.036 37.7771Z" fill="#162C2A"/>
<path d="M208.125 22.3182C204.987 20.2818 201.388 19.2443 197.443 19.2443C194.254 19.2443 191.257 19.9359 188.555 21.3192C186.531 22.331 184.7 23.6502 183.111 25.2383V5.79626C183.111 4.37461 182.663 3.1963 181.792 2.29976C180.909 1.40322 179.756 0.954956 178.334 0.954956C176.913 0.954956 175.824 1.40322 174.876 2.29976C173.992 3.18349 173.557 4.3618 173.557 5.79626V42.0804C173.608 46.3838 174.62 50.303 176.554 53.7482C178.488 57.1935 181.165 59.96 184.507 61.9964C187.85 63.9688 191.667 64.9678 195.868 64.9678C200.069 64.9678 203.962 63.9688 207.318 61.9964C210.661 59.9728 213.325 57.2063 215.259 53.761C217.257 50.3158 218.256 46.3838 218.256 42.0804C218.256 37.777 217.334 33.8835 215.502 30.5023C213.722 27.057 211.237 24.3034 208.112 22.331L208.125 22.3182ZM209.034 42.0548C209.034 44.7188 208.432 47.1651 207.241 49.3296C206.114 51.4813 204.539 53.1975 202.592 54.4398C200.632 55.631 198.378 56.2329 195.868 56.2329C193.358 56.2329 191.155 55.631 189.157 54.4398C187.197 53.1975 185.635 51.4813 184.495 49.3296C183.355 47.1779 182.778 44.7316 182.778 42.0548C182.778 39.378 183.355 36.8933 184.482 34.7929C185.609 32.7052 187.171 31.0402 189.144 29.8363C191.142 28.5939 193.409 27.9664 195.855 27.9664C198.301 27.9664 200.607 28.5939 202.579 29.8363C204.539 31.0274 206.101 32.6924 207.241 34.8057C208.419 36.9061 209.021 39.3396 209.021 42.0548H209.034Z" fill="#162C2A"/>
<path d="M260.329 22.2158C256.986 20.2434 253.118 19.2444 248.815 19.2444C244.512 19.2444 240.567 20.2434 237.237 22.2158C233.894 24.1369 231.204 26.8521 229.27 30.3102C227.388 33.7043 226.427 37.6746 226.427 42.1445C226.427 46.6144 227.388 50.5336 229.27 53.9916C231.204 57.3857 233.881 60.1009 237.237 62.0733C240.58 63.9944 244.473 64.955 248.815 64.955C253.157 64.955 257.063 63.9816 260.406 62.0605C263.749 60.0881 266.4 57.3729 268.295 53.966C270.178 50.5207 271.126 46.5504 271.126 42.1445C271.126 37.7387 270.14 33.6915 268.206 30.3102C266.323 26.8521 263.659 24.1369 260.316 22.2158H260.329ZM261.904 42.1445C261.904 44.911 261.328 47.3829 260.188 49.4961C259.112 51.5838 257.575 53.2488 255.616 54.4399C253.656 55.631 251.376 56.233 248.815 56.233C246.253 56.233 243.974 55.631 242.014 54.4399C240.054 53.2488 238.492 51.5838 237.365 49.4833C236.238 47.3829 235.661 44.911 235.661 42.1445C235.661 39.3781 236.238 36.9062 237.378 34.7929C238.505 32.654 240.067 30.9634 242.027 29.7723C243.986 28.5812 246.266 27.9792 248.828 27.9792C251.389 27.9792 253.669 28.5812 255.629 29.7723C257.575 30.9634 259.112 32.654 260.201 34.8057C261.328 36.9062 261.904 39.3781 261.904 42.1573V42.1445Z" fill="#162C2A"/>
<path d="M294.372 55.1187H292.412C291.554 55.1187 290.85 54.6192 290.273 53.6074C289.62 52.4675 289.274 50.9562 289.274 49.1503V5.70661C289.274 4.33618 288.826 3.18349 287.955 2.29976C287.071 1.40322 285.944 0.954956 284.587 0.954956C283.229 0.954956 282.089 1.40322 281.206 2.29976C280.335 3.1963 279.886 4.33618 279.886 5.70661V49.1375C279.886 52.096 280.411 54.7729 281.449 57.091C282.499 59.3836 283.972 61.2279 285.855 62.5727C287.763 63.9432 289.966 64.6348 292.412 64.6348H292.566C294.295 64.6348 295.742 64.2121 296.869 63.3668C298.06 62.4703 298.675 61.3048 298.675 59.8831C298.675 58.4615 298.265 57.3728 297.471 56.5147C296.69 55.5925 295.653 55.1187 294.372 55.1187Z" fill="#162C2A"/>
<path d="M341.325 44.5139C342.144 43.6686 342.567 42.6312 342.567 41.4273C342.567 37.1367 341.747 33.3072 340.146 30.0413C338.571 26.6856 336.24 24.0217 333.205 22.1517C330.169 20.2178 326.493 19.2444 322.293 19.2444C318.092 19.2444 314.224 20.2434 310.945 22.2158C307.653 24.1369 305.028 26.865 303.132 30.3102C301.301 33.7043 300.379 37.6746 300.379 42.1317C300.379 46.5888 301.365 50.5208 303.312 53.9788C305.297 57.3729 308.063 60.0881 311.521 62.0605C315.018 63.9688 319.039 64.9422 323.484 64.9422C325.968 64.9422 328.581 64.4683 331.245 63.5462C333.986 62.624 336.304 61.3945 338.136 59.9216C339.237 59.0635 339.749 58.0132 339.685 56.7965C339.621 55.631 339.058 54.568 338.008 53.6202C337.175 52.903 336.176 52.57 335.075 52.634C334.012 52.634 333.013 52.9798 332.09 53.6714C331.117 54.4143 329.785 55.1059 328.159 55.7079C326.583 56.2586 325.008 56.5404 323.484 56.5404C319.718 56.5404 316.491 55.4517 313.891 53.3128C311.56 51.302 310.048 48.7533 309.382 45.6923H338.2C339.442 45.6923 340.492 45.2952 341.338 44.5011L341.325 44.5139ZM309.472 37.7771C310.151 34.921 311.509 32.5516 313.507 30.6945C315.697 28.6708 318.655 27.6462 322.293 27.6462C325.648 27.6462 328.223 28.658 330.182 30.7457C331.962 32.6028 333.128 34.9594 333.666 37.7771H309.472Z" fill="#162C2A"/>
</g>
<defs>
<clipPath id="clip0_4555_60414">
<rect width="342.567" height="64" fill="white" transform="translate(0 0.954956)"/>
</clipPath>
</defs>
</svg>
