<svg width="343" height="64" viewBox="0 0 343 64" fill="none" xmlns="http://www.w3.org/2000/svg">
<g clip-path="url(#clip0_4555_60445)">
<path d="M5.59696 11.3348C8.68807 11.3348 11.1939 8.82894 11.1939 5.73783C11.1939 2.64671 8.68807 0.140869 5.59696 0.140869C2.50584 0.140869 -1.21833e-06 2.64671 -1.21833e-06 5.73783C-1.21833e-06 8.82894 2.50584 11.3348 5.59696 11.3348Z" fill="#0B0B0B"/>
<path d="M5.59696 34.2477C8.68807 34.2477 11.1939 31.7419 11.1939 28.6508C11.1939 25.5597 8.68807 23.0538 5.59696 23.0538C2.50584 23.0538 -1.21833e-06 25.5597 -1.21833e-06 28.6508C-1.21833e-06 31.7419 2.50584 34.2477 5.59696 34.2477Z" fill="#0B0B0B"/>
<path d="M57.34 21.3632C54.2021 19.3268 50.6032 18.2894 46.6584 18.2894C43.4693 18.2894 40.4723 18.981 37.7699 20.3642C35.7462 21.376 33.9147 22.6952 32.3266 24.2834V4.8413C32.3266 3.41965 31.8783 2.24134 31.0074 1.34481C30.1237 0.448269 28.971 0 27.5493 0C26.1277 0 25.039 0.448269 24.0913 1.34481C23.2203 2.22854 22.7721 3.40684 22.7721 4.8413V41.1255C22.8233 45.4289 23.8351 49.348 25.7691 52.7933C27.703 56.2385 30.3798 59.005 33.7226 61.0414C37.0654 63.0138 40.8821 64.0128 45.083 64.0128C49.284 64.0128 53.1775 63.0138 56.5331 61.0414C59.8759 59.0178 62.5399 56.2385 64.4739 52.8061C66.4719 49.3608 67.4709 45.4289 67.4709 41.1255C67.4709 36.8221 66.5487 32.9286 64.7172 29.5473C62.937 26.1021 60.4523 23.3484 57.3272 21.376L57.34 21.3632ZM58.2493 41.0999C58.2493 43.7639 57.6474 46.2101 56.4563 48.3746C55.3292 50.5263 53.7539 52.2425 51.8071 53.4849C49.8475 54.676 47.5934 55.278 45.083 55.278C42.5727 55.278 40.3698 54.676 38.3718 53.4849C36.4122 52.2425 34.8369 50.5263 33.7098 48.3746C32.5699 46.2229 31.9936 43.7767 31.9936 41.0999C31.9936 38.4231 32.5699 35.9384 33.697 33.8379C34.8241 31.7502 36.3866 30.0852 38.359 28.8813C40.3698 27.639 42.624 27.0114 45.0702 27.0114C47.5165 27.0114 49.8219 27.639 51.7943 28.8813C53.7538 30.0724 55.3164 31.7374 56.4563 33.8507C57.6346 35.9512 58.2365 38.3846 58.2365 41.0999H58.2493Z" fill="#0B0B0B"/>
<path d="M108.468 21.1968C105.433 19.2628 101.757 18.2894 97.5561 18.2894C93.3552 18.2894 89.4873 19.2884 86.1957 21.2608C82.9041 23.182 80.2786 25.8972 78.383 29.3553C76.5515 32.7493 75.6294 36.7197 75.6294 41.1768C75.6294 45.6338 76.6156 49.5658 78.5623 53.0239C80.5475 56.4179 83.314 59.1331 86.7721 61.1055C90.2686 63.0139 94.2902 63.9872 98.7344 63.9872C101.206 63.9872 103.832 63.5134 106.496 62.5912C109.237 61.6691 111.555 60.4395 113.374 58.9666C114.475 58.1085 115 57.0583 114.923 55.8416C114.859 54.6761 114.296 53.613 113.246 52.6653C112.413 51.948 111.414 51.615 110.313 51.6791C109.262 51.6791 108.263 52.0249 107.341 52.7165C106.355 53.4593 105.036 54.1509 103.409 54.7529C101.834 55.3036 100.259 55.5854 98.7344 55.5854C94.969 55.5854 91.7414 54.4968 89.1415 52.3579C86.8105 50.3471 85.2992 47.7983 84.6332 44.7373H113.45C114.693 44.7373 115.743 44.3403 116.588 43.5462C117.408 42.7137 117.831 41.6635 117.831 40.4595C117.831 36.169 117.011 32.3267 115.41 29.0735C113.835 25.7179 111.504 23.0539 108.468 21.184V21.1968ZM108.942 36.8221H84.7484C85.4272 33.9788 86.7849 31.5966 88.7829 29.7395C90.973 27.7159 93.9316 26.6913 97.5689 26.6913C100.925 26.6913 103.499 27.7031 105.458 29.7907C107.239 31.6478 108.404 34.0045 108.942 36.8221Z" fill="#0B0B0B"/>
<path d="M155.575 21.1968C152.54 19.2628 148.864 18.2894 144.663 18.2894C140.462 18.2894 136.594 19.2884 133.302 21.2608C130.011 23.182 127.385 25.91 125.49 29.3553C123.658 32.7365 122.736 36.7197 122.736 41.1768C122.736 45.6338 123.722 49.5658 125.656 53.0239C127.654 56.4179 130.408 59.1331 133.866 61.1055C137.362 63.0139 141.384 63.9872 145.828 63.9872C148.313 63.9872 150.926 63.5134 153.59 62.5912C156.331 61.6691 158.649 60.4395 160.48 58.9666C161.582 58.1085 162.107 57.0583 162.03 55.8416C161.966 54.6761 161.402 53.613 160.352 52.6653C159.52 51.948 158.508 51.615 157.419 51.6791C156.369 51.6791 155.357 52.0249 154.435 52.7165C153.462 53.4593 152.13 54.1509 150.503 54.7529C148.928 55.3036 147.352 55.5854 145.828 55.5854C142.063 55.5854 138.835 54.4968 136.235 52.3579C133.904 50.3599 132.393 47.7983 131.727 44.7373H160.544C161.787 44.7373 162.837 44.3403 163.682 43.5462C164.502 42.7137 164.925 41.6635 164.925 40.4467C164.925 36.1561 164.105 32.3138 162.504 29.0607C160.929 25.7051 158.598 23.0411 155.562 21.1712L155.575 21.1968ZM156.036 36.8221H131.842C132.521 33.966 133.879 31.5966 135.877 29.7395C138.067 27.7159 141.025 26.6913 144.663 26.6913C148.018 26.6913 150.593 27.7031 152.552 29.7907C154.333 31.6478 155.498 34.0045 156.036 36.8221Z" fill="#0B0B0B"/>
<path d="M208.125 21.3632C204.987 19.3268 201.388 18.2894 197.443 18.2894C194.254 18.2894 191.257 18.981 188.555 20.3642C186.531 21.376 184.7 22.6952 183.111 24.2834V4.8413C183.111 3.41965 182.663 2.24134 181.792 1.34481C180.909 0.448269 179.756 0 178.334 0C176.913 0 175.824 0.448269 174.876 1.34481C173.992 2.22854 173.557 3.40684 173.557 4.8413V41.1255C173.608 45.4289 174.62 49.348 176.554 52.7933C178.488 56.2385 181.165 59.005 184.507 61.0414C187.85 63.0138 191.667 64.0128 195.868 64.0128C200.069 64.0128 203.962 63.0138 207.318 61.0414C210.661 59.0178 213.325 56.2513 215.259 52.8061C217.257 49.3608 218.256 45.4289 218.256 41.1255C218.256 36.8221 217.334 32.9286 215.502 29.5473C213.722 26.1021 211.237 23.3484 208.112 21.376L208.125 21.3632ZM209.034 41.0999C209.034 43.7639 208.432 46.2101 207.241 48.3746C206.114 50.5263 204.539 52.2425 202.592 53.4849C200.632 54.676 198.378 55.278 195.868 55.278C193.358 55.278 191.155 54.676 189.157 53.4849C187.197 52.2425 185.635 50.5263 184.495 48.3746C183.355 46.2229 182.778 43.7767 182.778 41.0999C182.778 38.4231 183.355 35.9384 184.482 33.8379C185.609 31.7502 187.171 30.0852 189.144 28.8813C191.142 27.639 193.409 27.0114 195.855 27.0114C198.301 27.0114 200.607 27.639 202.579 28.8813C204.539 30.0724 206.101 31.7374 207.241 33.8507C208.419 35.9512 209.021 38.3846 209.021 41.0999H209.034Z" fill="#0B0B0B"/>
<path d="M260.329 21.2608C256.986 19.2884 253.118 18.2894 248.815 18.2894C244.512 18.2894 240.567 19.2884 237.237 21.2608C233.894 23.182 231.204 25.8972 229.27 29.3553C227.388 32.7493 226.427 36.7197 226.427 41.1896C226.427 45.6595 227.388 49.5786 229.27 53.0367C231.204 56.4307 233.881 59.1459 237.237 61.1183C240.58 63.0395 244.473 64.0001 248.815 64.0001C253.157 64.0001 257.063 63.0267 260.406 61.1055C263.749 59.1331 266.4 56.4179 268.295 53.0111C270.178 49.5658 271.126 45.5954 271.126 41.1896C271.126 36.7837 270.14 32.7365 268.206 29.3553C266.323 25.8972 263.659 23.182 260.316 21.2608H260.329ZM261.904 41.1896C261.904 43.956 261.328 46.4279 260.188 48.5412C259.112 50.6288 257.575 52.2938 255.616 53.4849C253.656 54.6761 251.376 55.278 248.815 55.278C246.253 55.278 243.974 54.6761 242.014 53.4849C240.054 52.2938 238.492 50.6288 237.365 48.5284C236.238 46.4279 235.661 43.956 235.661 41.1896C235.661 38.4231 236.238 35.9512 237.378 33.838C238.505 31.6991 240.067 30.0085 242.027 28.8173C243.986 27.6262 246.266 27.0243 248.828 27.0243C251.389 27.0243 253.669 27.6262 255.629 28.8173C257.575 30.0085 259.112 31.6991 260.201 33.8508C261.328 35.9512 261.904 38.4231 261.904 41.2024V41.1896Z" fill="#0B0B0B"/>
<path d="M294.372 54.1637H292.412C291.554 54.1637 290.85 53.6642 290.273 52.6524C289.62 51.5125 289.274 50.0012 289.274 48.1953V4.75165C289.274 3.38123 288.826 2.22854 287.955 1.34481C287.071 0.448269 285.944 0 284.587 0C283.229 0 282.089 0.448269 281.206 1.34481C280.335 2.24134 279.886 3.38123 279.886 4.75165V48.1825C279.886 51.1411 280.411 53.8179 281.449 56.1361C282.499 58.4287 283.972 60.273 285.855 61.6178C287.763 62.9882 289.966 63.6798 292.412 63.6798H292.566C294.295 63.6798 295.742 63.2572 296.869 62.4118C298.06 61.5153 298.675 60.3498 298.675 58.9282C298.675 57.5065 298.265 56.4179 297.471 55.5597C296.69 54.6376 295.653 54.1637 294.372 54.1637Z" fill="#0B0B0B"/>
<path d="M341.325 43.559C342.144 42.7137 342.567 41.6763 342.567 40.4723C342.567 36.1818 341.747 32.3523 340.146 29.0863C338.571 25.7307 336.24 23.0667 333.205 21.1968C330.169 19.2628 326.493 18.2894 322.293 18.2894C318.092 18.2894 314.224 19.2884 310.945 21.2608C307.653 23.182 305.028 25.91 303.132 29.3553C301.301 32.7493 300.379 36.7197 300.379 41.1768C300.379 45.6338 301.365 49.5658 303.312 53.0239C305.297 56.4179 308.063 59.1331 311.521 61.1055C315.018 63.0139 319.039 63.9872 323.484 63.9872C325.968 63.9872 328.581 63.5134 331.245 62.5912C333.986 61.6691 336.304 60.4395 338.136 58.9666C339.237 58.1085 339.749 57.0583 339.685 55.8416C339.621 54.6761 339.058 53.613 338.008 52.6653C337.175 51.948 336.176 51.615 335.075 51.6791C334.012 51.6791 333.013 52.0249 332.09 52.7165C331.117 53.4593 329.785 54.1509 328.159 54.7529C326.583 55.3036 325.008 55.5854 323.484 55.5854C319.718 55.5854 316.491 54.4968 313.891 52.3579C311.56 50.3471 310.048 47.7983 309.382 44.7373H338.2C339.442 44.7373 340.492 44.3403 341.338 43.5462L341.325 43.559ZM309.472 36.8221C310.151 33.966 311.509 31.5966 313.507 29.7395C315.697 27.7159 318.655 26.6913 322.293 26.6913C325.648 26.6913 328.223 27.7031 330.182 29.7907C331.962 31.6478 333.128 34.0045 333.666 36.8221H309.472Z" fill="#0B0B0B"/>
</g>
<defs>
<clipPath id="clip0_4555_60445">
<rect width="342.567" height="64" fill="white"/>
</clipPath>
</defs>
</svg>
